<?xml version="1.0" encoding="UTF-8"?>
<!DOCTYPE svg PUBLIC "-//W3C//DTD SVG 1.1//EN" "http://www.w3.org/Graphics/SVG/1.1/DTD/svg11.dtd">
<svg xmlns="http://www.w3.org/2000/svg" version="1.1" width="1024px" height="1024px" style="shape-rendering:geometricPrecision; text-rendering:geometricPrecision; image-rendering:optimizeQuality; fill-rule:evenodd; clip-rule:evenodd" xmlns:xlink="http://www.w3.org/1999/xlink">
<g><path style="opacity:1" fill="#fefefe" d="M -0.5,-0.5 C 340.833,-0.5 682.167,-0.5 1023.5,-0.5C 1023.5,340.833 1023.5,682.167 1023.5,1023.5C 682.167,1023.5 340.833,1023.5 -0.5,1023.5C -0.5,682.167 -0.5,340.833 -0.5,-0.5 Z"/></g>
<g><path style="opacity:1" fill="#f6eedd" d="M 624.5,287.5 C 597.503,288.018 570.503,288.351 543.5,288.5C 504.5,288.5 465.5,288.5 426.5,288.5C 414.5,288.5 402.5,288.5 390.5,288.5C 382.316,288.826 374.316,288.492 366.5,287.5C 452.672,287.394 538.672,287.394 624.5,287.5 Z"/></g>
<g><path style="opacity:1" fill="#fce9b7" d="M 426.5,288.5 C 465.5,288.5 504.5,288.5 543.5,288.5C 546.403,290.245 546.07,291.245 542.5,291.5C 541.5,291.333 540.5,291.167 539.5,291C 539.833,290.667 540.167,290.333 540.5,290C 538.833,289.333 537.167,289.333 535.5,290C 536.5,290.333 537.5,290.667 538.5,291C 532.073,293.633 525.406,295.466 518.5,296.5C 518.726,299.249 518.393,301.916 517.5,304.5C 511.872,305.495 506.206,305.829 500.5,305.5C 500.657,304.127 500.49,302.793 500,301.5C 499.481,302.516 498.647,303.182 497.5,303.5C 491.005,302.916 484.671,301.916 478.5,300.5C 478.5,301.833 478.5,303.167 478.5,304.5C 477.5,304.5 476.5,304.5 475.5,304.5C 475.425,307.206 475.092,309.873 474.5,312.5C 469.489,312.666 464.489,312.499 459.5,312C 459.167,311.667 458.833,311.333 458.5,311C 460.781,308.544 463.448,306.71 466.5,305.5C 466.227,303.549 466.893,302.049 468.5,301C 467.572,300.612 466.905,299.945 466.5,299C 467.829,297.34 468.829,295.507 469.5,293.5C 472.06,292.253 474.727,291.253 477.5,290.5C 462.515,289.501 447.515,289.167 432.5,289.5C 430.265,289.795 428.265,289.461 426.5,288.5 Z"/></g>
<g><path style="opacity:1" fill="#644e26" d="M 342.5,287.5 C 343.5,287.5 344.5,287.5 345.5,287.5C 346.694,288.272 347.694,289.272 348.5,290.5C 347.226,291.189 347.226,292.023 348.5,293C 347.906,293.464 347.239,293.631 346.5,293.5C 345,291.821 343.167,290.488 341,289.5C 340.472,288.184 340.972,287.517 342.5,287.5 Z"/></g>
<g><path style="opacity:1" fill="#f5da9e" d="M 390.5,288.5 C 402.5,288.5 414.5,288.5 426.5,288.5C 428.265,289.461 430.265,289.795 432.5,289.5C 432.489,291.017 431.823,292.184 430.5,293C 430.833,293.333 431.167,293.667 431.5,294C 430.224,296.724 429.558,299.724 429.5,303C 429.522,306.086 429.855,309.086 430.5,312C 429.216,312.684 428.049,312.517 427,311.5C 425.698,312.085 424.531,312.751 423.5,313.5C 412.12,313.848 402.787,313.514 395.5,312.5C 395.5,310.5 395.5,308.5 395.5,306.5C 396.552,306.649 397.552,306.483 398.5,306C 396.909,302.725 397.242,299.725 399.5,297C 398.833,296.667 398.167,296.333 397.5,296C 400.346,295.121 401.013,293.454 399.5,291C 396.258,290.594 393.258,289.761 390.5,288.5 Z"/></g>
<g><path style="opacity:1" fill="#e9ca8c" d="M 345.5,287.5 C 352.5,287.5 359.5,287.5 366.5,287.5C 374.316,288.492 382.316,288.826 390.5,288.5C 393.258,289.761 396.258,290.594 399.5,291C 401.013,293.454 400.346,295.121 397.5,296C 398.167,296.333 398.833,296.667 399.5,297C 397.242,299.725 396.909,302.725 398.5,306C 397.552,306.483 396.552,306.649 395.5,306.5C 395.5,308.5 395.5,310.5 395.5,312.5C 402.787,313.514 412.12,313.848 423.5,313.5C 435.833,313.5 448.167,313.5 460.5,313.5C 432.672,314.498 404.672,314.831 376.5,314.5C 372.336,311.168 368.669,307.335 365.5,303C 361.805,300.49 358.138,297.99 354.5,295.5C 352.54,293.844 350.54,292.177 348.5,290.5C 347.694,289.272 346.694,288.272 345.5,287.5 Z"/></g>
<g><path style="opacity:1" fill="#f8dea6" d="M 432.5,289.5 C 447.515,289.167 462.515,289.501 477.5,290.5C 474.727,291.253 472.06,292.253 469.5,293.5C 468.829,295.507 467.829,297.34 466.5,299C 466.905,299.945 467.572,300.612 468.5,301C 466.893,302.049 466.227,303.549 466.5,305.5C 463.448,306.71 460.781,308.544 458.5,311C 458.833,311.333 459.167,311.667 459.5,312C 464.489,312.499 469.489,312.666 474.5,312.5C 478.371,312.185 482.038,312.518 485.5,313.5C 477.167,313.5 468.833,313.5 460.5,313.5C 448.167,313.5 435.833,313.5 423.5,313.5C 424.531,312.751 425.698,312.085 427,311.5C 428.049,312.517 429.216,312.684 430.5,312C 429.855,309.086 429.522,306.086 429.5,303C 429.558,299.724 430.224,296.724 431.5,294C 431.167,293.667 430.833,293.333 430.5,293C 431.823,292.184 432.489,291.017 432.5,289.5 Z"/></g>
<g><path style="opacity:1" fill="#f9edbf" d="M 624.5,287.5 C 624.5,287.833 624.5,288.167 624.5,288.5C 620.183,291.486 616.183,294.82 612.5,298.5C 606.393,303.397 600.726,308.73 595.5,314.5C 578.5,314.5 561.5,314.5 544.5,314.5C 524.822,314.645 505.155,314.311 485.5,313.5C 482.038,312.518 478.371,312.185 474.5,312.5C 475.092,309.873 475.425,307.206 475.5,304.5C 476.5,304.5 477.5,304.5 478.5,304.5C 478.5,303.167 478.5,301.833 478.5,300.5C 484.671,301.916 491.005,302.916 497.5,303.5C 498.647,303.182 499.481,302.516 500,301.5C 500.49,302.793 500.657,304.127 500.5,305.5C 506.206,305.829 511.872,305.495 517.5,304.5C 518.393,301.916 518.726,299.249 518.5,296.5C 525.406,295.466 532.073,293.633 538.5,291C 537.5,290.667 536.5,290.333 535.5,290C 537.167,289.333 538.833,289.333 540.5,290C 540.167,290.333 539.833,290.667 539.5,291C 540.5,291.167 541.5,291.333 542.5,291.5C 546.07,291.245 546.403,290.245 543.5,288.5C 570.503,288.351 597.503,288.018 624.5,287.5 Z"/></g>
<g><path style="opacity:1" fill="#9b8d5e" d="M 624.5,288.5 C 624.5,288.167 624.5,287.833 624.5,287.5C 629.414,287.362 634.081,288.028 638.5,289.5C 636.549,289.227 635.049,289.893 634,291.5C 633.5,290.333 632.667,289.5 631.5,289C 629.19,288.503 626.857,288.337 624.5,288.5 Z"/></g>
<g><path style="opacity:1" fill="#9c907a" d="M 342.5,287.5 C 340.972,287.517 340.472,288.184 341,289.5C 343.167,290.488 345,291.821 346.5,293.5C 346.5,294.5 346.5,295.5 346.5,296.5C 345.751,295.469 345.085,294.302 344.5,293C 341.91,291.555 339.243,290.388 336.5,289.5C 336.5,288.5 336.5,287.5 336.5,286.5C 338.735,286.205 340.735,286.539 342.5,287.5 Z"/></g>
<g><path style="opacity:1" fill="#7c7468" d="M 335.5,299.5 C 335.565,299.938 335.399,300.272 335,300.5C 333.907,298.651 332.574,296.984 331,295.5C 330.601,295.728 330.435,296.062 330.5,296.5C 329.466,294.183 330.466,293.183 333.5,293.5C 333.604,295.703 334.27,297.703 335.5,299.5 Z"/></g>
<g><path style="opacity:1" fill="#776226" d="M 624.5,288.5 C 626.857,288.337 629.19,288.503 631.5,289C 632.667,289.5 633.5,290.333 634,291.5C 635.049,289.893 636.549,289.227 638.5,289.5C 640.099,289.232 641.432,289.566 642.5,290.5C 642.443,291.609 642.11,292.609 641.5,293.5C 635.312,297.442 629.645,302.108 624.5,307.5C 624.056,304.274 622.389,301.94 619.5,300.5C 618.824,301.602 618.158,302.602 617.5,303.5C 617.649,302.448 617.483,301.448 617,300.5C 616.667,300.833 616.333,301.167 616,301.5C 614.641,300.635 613.474,299.635 612.5,298.5C 616.183,294.82 620.183,291.486 624.5,288.5 Z"/></g>
<g><path style="opacity:1" fill="#a7a39f" d="M 346.5,296.5 C 347.663,299.323 348.663,302.323 349.5,305.5C 349.253,306.713 348.586,307.38 347.5,307.5C 347.058,303.846 346.724,300.179 346.5,296.5 Z"/></g>
<g><path style="opacity:1" fill="#e5d5b1" d="M 335.5,299.5 C 336.974,300.436 337.974,301.77 338.5,303.5C 336.302,302.986 334.302,301.986 332.5,300.5C 331.504,306.798 331.17,313.132 331.5,319.5C 330.508,312.018 330.175,304.352 330.5,296.5C 330.435,296.062 330.601,295.728 331,295.5C 332.574,296.984 333.907,298.651 335,300.5C 335.399,300.272 335.565,299.938 335.5,299.5 Z"/></g>
<g><path style="opacity:1" fill="#261e16" d="M 348.5,290.5 C 350.54,292.177 352.54,293.844 354.5,295.5C 354.833,296.833 355.167,298.167 355.5,299.5C 355.196,300.15 354.863,300.817 354.5,301.5C 355.5,302.833 356.5,304.167 357.5,305.5C 356.359,306.425 356.359,307.259 357.5,308C 355.865,308.54 354.532,308.04 353.5,306.5C 351.759,313.333 354.426,316.333 361.5,315.5C 361.5,316.5 361.5,317.5 361.5,318.5C 360.833,318.5 360.167,318.5 359.5,318.5C 358.883,318.611 358.383,318.944 358,319.5C 353.867,316.369 350.034,312.869 346.5,309C 347.056,308.617 347.389,308.117 347.5,307.5C 348.586,307.38 349.253,306.713 349.5,305.5C 348.663,302.323 347.663,299.323 346.5,296.5C 346.5,295.5 346.5,294.5 346.5,293.5C 347.239,293.631 347.906,293.464 348.5,293C 347.226,292.023 347.226,291.189 348.5,290.5 Z"/></g>
<g><path style="opacity:1" fill="#301a11" d="M 354.5,295.5 C 358.138,297.99 361.805,300.49 365.5,303C 368.669,307.335 372.336,311.168 376.5,314.5C 376.5,314.833 376.5,315.167 376.5,315.5C 372.509,314.701 369.009,312.368 366,308.5C 365.51,307.207 365.343,305.873 365.5,304.5C 364.167,304.5 362.833,304.5 361.5,304.5C 361.5,303.5 361.5,302.5 361.5,301.5C 358.791,301.445 356.791,300.778 355.5,299.5C 355.167,298.167 354.833,296.833 354.5,295.5 Z"/></g>
<g><path style="opacity:1" fill="#69541d" d="M 624.5,307.5 C 620.108,312.894 615.108,317.561 609.5,321.5C 605.092,321.062 603.425,323.062 604.5,327.5C 603.833,327.5 603.5,327.167 603.5,326.5C 603.896,323.956 603.229,321.789 601.5,320C 602.126,319.25 602.626,318.416 603,317.5C 606.523,321.447 607.357,321.447 605.5,317.5C 605.709,316.914 606.043,316.414 606.5,316C 603.536,315.16 603.203,314.16 605.5,313C 604.18,310.785 604.847,309.285 607.5,308.5C 609.548,309.326 611.215,308.659 612.5,306.5C 609.924,305.117 610.258,304.283 613.5,304C 613.167,303.667 612.833,303.333 612.5,303C 614.251,303.309 615.918,303.475 617.5,303.5C 618.158,302.602 618.824,301.602 619.5,300.5C 622.389,301.94 624.056,304.274 624.5,307.5 Z"/></g>
<g><path style="opacity:1" fill="#3f2818" d="M 460.5,313.5 C 468.833,313.5 477.167,313.5 485.5,313.5C 505.155,314.311 524.822,314.645 544.5,314.5C 544.5,314.833 544.5,315.167 544.5,315.5C 532.149,315.168 519.815,315.501 507.5,316.5C 509.145,317.696 510.811,318.696 512.5,319.5C 506.167,318.833 499.833,318.167 493.5,317.5C 488.631,316.249 483.631,316.249 478.5,317.5C 478.611,316.883 478.944,316.383 479.5,316C 475.863,315.283 472.196,314.783 468.5,314.5C 437.806,315.95 407.139,316.283 376.5,315.5C 376.5,315.167 376.5,314.833 376.5,314.5C 404.672,314.831 432.672,314.498 460.5,313.5 Z"/></g>
<g><path style="opacity:1" fill="#68471b" d="M 612.5,298.5 C 613.474,299.635 614.641,300.635 616,301.5C 616.333,301.167 616.667,300.833 617,300.5C 617.483,301.448 617.649,302.448 617.5,303.5C 615.918,303.475 614.251,303.309 612.5,303C 612.833,303.333 613.167,303.667 613.5,304C 610.258,304.283 609.924,305.117 612.5,306.5C 611.215,308.659 609.548,309.326 607.5,308.5C 604.847,309.285 604.18,310.785 605.5,313C 603.203,314.16 603.536,315.16 606.5,316C 606.043,316.414 605.709,316.914 605.5,317.5C 607.357,321.447 606.523,321.447 603,317.5C 602.626,318.416 602.126,319.25 601.5,320C 603.229,321.789 603.896,323.956 603.5,326.5C 602.188,324.589 600.188,322.756 597.5,321C 597.777,319.108 598.777,317.775 600.5,317C 598.009,316.374 598.009,315.541 600.5,314.5C 598.997,313.948 597.331,313.948 595.5,314.5C 600.726,308.73 606.393,303.397 612.5,298.5 Z"/></g>
<g><path style="opacity:1" fill="#837e79" d="M 493.5,317.5 C 486.82,317.612 480.153,317.946 473.5,318.5C 474.919,317.549 476.585,317.216 478.5,317.5C 483.631,316.249 488.631,316.249 493.5,317.5 Z"/></g>
<g><path style="opacity:1" fill="#1c1511" d="M 544.5,315.5 C 547.833,315.5 551.167,315.5 554.5,315.5C 555.609,316.29 556.942,316.79 558.5,317C 558.456,318.935 558.456,320.768 558.5,322.5C 543.166,321.334 527.833,320.334 512.5,319.5C 510.811,318.696 509.145,317.696 507.5,316.5C 519.815,315.501 532.149,315.168 544.5,315.5 Z"/></g>
<g><path style="opacity:1" fill="#faebbe" d="M 641.5,293.5 C 642.486,311.09 642.819,328.757 642.5,346.5C 641.833,340.986 641.167,335.319 640.5,329.5C 639.5,330.833 638.5,330.833 637.5,329.5C 636.548,331.045 636.215,332.712 636.5,334.5C 635.5,334.5 634.5,334.5 633.5,334.5C 633.5,336.5 633.5,338.5 633.5,340.5C 631.5,340.5 629.5,340.5 627.5,340.5C 627.67,341.822 627.337,342.989 626.5,344C 623.833,344.333 621.167,344.667 618.5,345C 619.706,346.018 619.373,346.518 617.5,346.5C 616.416,346.315 615.416,345.982 614.5,345.5C 613.59,343.981 612.757,342.315 612,340.5C 611.31,339.262 610.81,339.262 610.5,340.5C 608.659,338.151 607.326,335.485 606.5,332.5C 606.746,329.707 606.913,326.707 607,323.5C 607.995,322.934 608.828,322.267 609.5,321.5C 615.108,317.561 620.108,312.894 624.5,307.5C 629.645,302.108 635.312,297.442 641.5,293.5 Z"/></g>
<g><path style="opacity:1" fill="#1c1612" d="M 355.5,299.5 C 356.791,300.778 358.791,301.445 361.5,301.5C 361.5,302.5 361.5,303.5 361.5,304.5C 362.833,304.5 364.167,304.5 365.5,304.5C 365.343,305.873 365.51,307.207 366,308.5C 369.009,312.368 372.509,314.701 376.5,315.5C 407.139,316.283 437.806,315.95 468.5,314.5C 472.196,314.783 475.863,315.283 479.5,316C 478.944,316.383 478.611,316.883 478.5,317.5C 476.585,317.216 474.919,317.549 473.5,318.5C 465.753,319.006 458.086,320.006 450.5,321.5C 437.827,321.652 425.161,321.985 412.5,322.5C 397.119,322.802 381.785,322.469 366.5,321.5C 365.035,320.263 363.368,319.263 361.5,318.5C 361.5,317.5 361.5,316.5 361.5,315.5C 354.426,316.333 351.759,313.333 353.5,306.5C 354.532,308.04 355.865,308.54 357.5,308C 356.359,307.259 356.359,306.425 357.5,305.5C 356.5,304.167 355.5,302.833 354.5,301.5C 354.863,300.817 355.196,300.15 355.5,299.5 Z"/></g>
<g><path style="opacity:1" fill="#50351f" d="M 603.5,326.5 C 603.5,327.167 603.833,327.5 604.5,327.5C 604.5,328.167 604.167,328.5 603.5,328.5C 600.963,326.284 597.963,325.117 594.5,325C 585.99,324.829 577.657,324.329 569.5,323.5C 577.507,323.666 585.507,323.5 593.5,323C 592.027,322.29 591.36,321.124 591.5,319.5C 588.203,319.671 587.869,319.005 590.5,317.5C 578.765,316.661 566.765,315.994 554.5,315.5C 551.167,315.5 547.833,315.5 544.5,315.5C 544.5,315.167 544.5,314.833 544.5,314.5C 561.5,314.5 578.5,314.5 595.5,314.5C 597.331,313.948 598.997,313.948 600.5,314.5C 598.009,315.541 598.009,316.374 600.5,317C 598.777,317.775 597.777,319.108 597.5,321C 600.188,322.756 602.188,324.589 603.5,326.5 Z"/></g>
<g><path style="opacity:1" fill="#eeeeed" d="M 359.5,318.5 C 360.167,318.5 360.833,318.5 361.5,318.5C 363.368,319.263 365.035,320.263 366.5,321.5C 366.5,322.5 366.5,323.5 366.5,324.5C 365.167,324.5 363.833,324.5 362.5,324.5C 362.167,324.5 361.833,324.5 361.5,324.5C 359.919,322.858 359.253,320.858 359.5,318.5 Z"/></g>
<g><path style="opacity:1" fill="#281e13" d="M 554.5,315.5 C 566.765,315.994 578.765,316.661 590.5,317.5C 587.869,319.005 588.203,319.671 591.5,319.5C 591.36,321.124 592.027,322.29 593.5,323C 585.507,323.5 577.507,323.666 569.5,323.5C 565.629,323.815 561.962,323.482 558.5,322.5C 558.456,320.768 558.456,318.935 558.5,317C 556.942,316.79 555.609,316.29 554.5,315.5 Z"/></g>
<g><path style="opacity:1" fill="#e6c486" d="M 338.5,303.5 C 340.871,306.184 343.871,307.518 347.5,307.5C 347.389,308.117 347.056,308.617 346.5,309C 350.034,312.869 353.867,316.369 358,319.5C 358.383,318.944 358.883,318.611 359.5,318.5C 359.253,320.858 359.919,322.858 361.5,324.5C 360.532,326.607 360.198,328.941 360.5,331.5C 358.558,336.603 357.224,341.936 356.5,347.5C 355.201,357.512 354.035,367.512 353,377.5C 348.804,378.843 344.637,380.343 340.5,382C 338.297,384.372 335.963,386.539 333.5,388.5C 332.833,370.167 332.167,351.833 331.5,333.5C 331.5,328.833 331.5,324.167 331.5,319.5C 331.17,313.132 331.504,306.798 332.5,300.5C 334.302,301.986 336.302,302.986 338.5,303.5 Z"/></g>
<g><path style="opacity:1" fill="#c8c7c6" d="M 450.5,321.5 C 438.016,322.698 425.349,323.365 412.5,323.5C 412.5,323.167 412.5,322.833 412.5,322.5C 425.161,321.985 437.827,321.652 450.5,321.5 Z"/></g>
<g><path style="opacity:1" fill="#f5eacf" d="M 642.5,290.5 C 643.498,316.328 643.831,342.328 643.5,368.5C 642.508,361.352 642.175,354.019 642.5,346.5C 642.819,328.757 642.486,311.09 641.5,293.5C 642.11,292.609 642.443,291.609 642.5,290.5 Z"/></g>
<g><path style="opacity:1" fill="#7e7874" d="M 366.5,321.5 C 381.785,322.469 397.119,322.802 412.5,322.5C 412.5,322.833 412.5,323.167 412.5,323.5C 399.829,323.333 387.162,323.5 374.5,324C 370.153,325.206 366.153,327.04 362.5,329.5C 362.5,327.833 362.5,326.167 362.5,324.5C 363.833,324.5 365.167,324.5 366.5,324.5C 366.5,323.5 366.5,322.5 366.5,321.5 Z"/></g>
<g><path style="opacity:1" fill="#9f8140" d="M 609.5,321.5 C 608.828,322.267 607.995,322.934 607,323.5C 606.913,326.707 606.746,329.707 606.5,332.5C 605.5,331.167 604.5,329.833 603.5,328.5C 604.167,328.5 604.5,328.167 604.5,327.5C 603.425,323.062 605.092,321.062 609.5,321.5 Z"/></g>
<g><path style="opacity:1" fill="#966d26" d="M 361.5,324.5 C 361.833,324.5 362.167,324.5 362.5,324.5C 362.5,326.167 362.5,327.833 362.5,329.5C 362.204,331.403 361.537,333.07 360.5,334.5C 360.5,333.5 360.5,332.5 360.5,331.5C 360.198,328.941 360.532,326.607 361.5,324.5 Z"/></g>
<g><path style="opacity:1" fill="#fbefc4" d="M 494.5,327.5 C 499.833,327.5 505.167,327.5 510.5,327.5C 513.119,327.232 515.619,327.565 518,328.5C 518.5,370.832 518.667,413.165 518.5,455.5C 517.566,454.432 517.232,453.099 517.5,451.5C 517.49,438.416 517.324,425.416 517,412.5C 515.768,415.23 514.935,415.063 514.5,412C 515.037,400.205 515.37,388.038 515.5,375.5C 513.833,375.5 512.167,375.5 510.5,375.5C 510.298,370.296 510.631,365.129 511.5,360C 511.149,357.411 510.482,354.911 509.5,352.5C 508.993,359.833 508.827,367.5 509,375.5C 508.667,376.5 508.333,377.5 508,378.5C 507.667,370.833 507.333,363.167 507,355.5C 505.296,361.723 504.463,368.056 504.5,374.5C 502.712,374.215 501.045,374.548 499.5,375.5C 499.833,376.167 500.167,376.833 500.5,377.5C 498.629,388.314 496.629,398.98 494.5,409.5C 494.5,382.167 494.5,354.833 494.5,327.5 Z"/></g>
<g><path style="opacity:1" fill="#b9995b" d="M 360.5,331.5 C 360.5,332.5 360.5,333.5 360.5,334.5C 359.39,339.014 358.057,343.347 356.5,347.5C 357.224,341.936 358.558,336.603 360.5,331.5 Z"/></g>
<g><path style="opacity:1" fill="#f9e4b1" d="M 642.5,346.5 C 642.175,354.019 642.508,361.352 643.5,368.5C 643.745,377.208 643.411,385.874 642.5,394.5C 641.209,394.737 640.209,394.404 639.5,393.5C 639.938,393.565 640.272,393.399 640.5,393C 638.833,391.333 637.167,389.667 635.5,388C 632.271,385.259 628.938,382.759 625.5,380.5C 622.318,378.807 620.652,376.141 620.5,372.5C 619.771,363.183 617.771,354.183 614.5,345.5C 615.416,345.982 616.416,346.315 617.5,346.5C 619.373,346.518 619.706,346.018 618.5,345C 621.167,344.667 623.833,344.333 626.5,344C 627.337,342.989 627.67,341.822 627.5,340.5C 629.5,340.5 631.5,340.5 633.5,340.5C 633.5,338.5 633.5,336.5 633.5,334.5C 634.5,334.5 635.5,334.5 636.5,334.5C 636.215,332.712 636.548,331.045 637.5,329.5C 638.5,330.833 639.5,330.833 640.5,329.5C 641.167,335.319 641.833,340.986 642.5,346.5 Z"/></g>
<g><path style="opacity:1" fill="#ba874f" d="M 614.5,345.5 C 617.771,354.183 619.771,363.183 620.5,372.5C 617.812,361.75 614.479,351.084 610.5,340.5C 610.81,339.262 611.31,339.262 612,340.5C 612.757,342.315 613.59,343.981 614.5,345.5 Z"/></g>
<g><path style="opacity:1" fill="#e9d8b7" d="M 472.5,326.5 C 466.021,327.491 459.354,327.824 452.5,327.5C 452.5,372.833 452.5,418.167 452.5,463.5C 452.802,466.059 452.468,468.393 451.5,470.5C 451.5,422.5 451.5,374.5 451.5,326.5C 458.5,326.5 465.5,326.5 472.5,326.5 Z"/></g>
<g><path style="opacity:1" fill="#fae3ac" d="M 474.5,466.5 C 473.883,466.611 473.383,466.944 473,467.5C 473.162,463.416 471.995,459.916 469.5,457C 469.833,456.667 470.167,456.333 470.5,456C 469.207,455.51 467.873,455.343 466.5,455.5C 466.665,452.482 466.498,449.482 466,446.5C 465.667,447.5 465.333,448.5 465,449.5C 464.268,442.169 462.602,434.502 460,426.5C 459.667,428.5 459.333,430.5 459,432.5C 458,432.167 457,431.833 456,431.5C 455.308,432.025 454.808,432.692 454.5,433.5C 455.087,435.742 455.421,437.909 455.5,440C 455.361,441.301 454.695,442.134 453.5,442.5C 453.559,427.771 453.725,413.105 454,398.5C 455.666,399.34 455.833,398.84 454.5,397C 455.457,392.544 456.79,388.211 458.5,384C 457.022,382.807 455.688,382.307 454.5,382.5C 454.802,374.257 455.302,365.923 456,357.5C 456.333,359.5 456.667,361.5 457,363.5C 457.909,358.27 459.075,358.27 460.5,363.5C 461.478,363.023 462.311,362.357 463,361.5C 463.5,373.495 463.667,385.495 463.5,397.5C 464.5,397.5 465.5,397.5 466.5,397.5C 466.983,406.276 466.316,414.942 464.5,423.5C 465.688,428.438 466.355,433.438 466.5,438.5C 468.592,438.561 470.092,439.561 471,441.5C 471.333,441.167 471.667,440.833 472,440.5C 472.333,442.833 472.667,445.167 473,447.5C 473.333,446.833 473.667,446.167 474,445.5C 474.5,452.492 474.666,459.492 474.5,466.5 Z"/></g>
<g><path style="opacity:1" fill="#fbe6b4" d="M 472.5,326.5 C 473.5,326.5 474.5,326.5 475.5,326.5C 475.5,386.833 475.5,447.167 475.5,507.5C 474.513,502.695 474.179,497.695 474.5,492.5C 474.5,483.833 474.5,475.167 474.5,466.5C 474.666,459.492 474.5,452.492 474,445.5C 473.667,446.167 473.333,446.833 473,447.5C 472.667,445.167 472.333,442.833 472,440.5C 471.667,440.833 471.333,441.167 471,441.5C 470.092,439.561 468.592,438.561 466.5,438.5C 466.355,433.438 465.688,428.438 464.5,423.5C 466.316,414.942 466.983,406.276 466.5,397.5C 465.5,397.5 464.5,397.5 463.5,397.5C 463.667,385.495 463.5,373.495 463,361.5C 462.311,362.357 461.478,363.023 460.5,363.5C 459.075,358.27 457.909,358.27 457,363.5C 456.667,361.5 456.333,359.5 456,357.5C 455.302,365.923 454.802,374.257 454.5,382.5C 455.688,382.307 457.022,382.807 458.5,384C 456.79,388.211 455.457,392.544 454.5,397C 455.833,398.84 455.666,399.34 454,398.5C 453.725,413.105 453.559,427.771 453.5,442.5C 453.825,449.687 453.491,456.687 452.5,463.5C 452.5,418.167 452.5,372.833 452.5,327.5C 459.354,327.824 466.021,327.491 472.5,326.5 Z"/></g>
<g><path style="opacity:1" fill="#dbc49d" d="M 331.5,333.5 C 332.167,351.833 332.833,370.167 333.5,388.5C 333.631,389.376 333.298,390.043 332.5,390.5C 331.5,371.512 331.167,352.512 331.5,333.5 Z"/></g>
<g><path style="opacity:1" fill="#cbac88" d="M 625.5,380.5 C 628.938,382.759 632.271,385.259 635.5,388C 637.167,389.667 638.833,391.333 640.5,393C 640.272,393.399 639.938,393.565 639.5,393.5C 634.226,389.895 629.559,385.562 625.5,380.5 Z"/></g>
<g><path style="opacity:1" fill="#fbebbb" d="M 517.5,451.5 C 516.673,456.651 516.173,461.984 516,467.5C 515.667,463.5 515.333,459.5 515,455.5C 514.667,459.167 514.333,462.833 514,466.5C 513.503,463.854 513.336,461.187 513.5,458.5C 510.482,458.335 507.482,458.502 504.5,459C 507.167,459.333 509.833,459.667 512.5,460C 508.698,460.917 505.032,461.083 501.5,460.5C 501.5,459.5 501.5,458.5 501.5,457.5C 498.155,457.674 496.988,456.341 498,453.5C 496.619,455.635 495.619,457.968 495,460.5C 494.5,468.159 494.334,475.826 494.5,483.5C 495.148,497.028 495.148,510.695 494.5,524.5C 494.5,528.167 494.5,531.833 494.5,535.5C 494.5,536.167 494.167,536.5 493.5,536.5C 493.2,494.15 493.533,451.816 494.5,409.5C 496.629,398.98 498.629,388.314 500.5,377.5C 500.167,376.833 499.833,376.167 499.5,375.5C 501.045,374.548 502.712,374.215 504.5,374.5C 504.463,368.056 505.296,361.723 507,355.5C 507.333,363.167 507.667,370.833 508,378.5C 508.333,377.5 508.667,376.5 509,375.5C 508.827,367.5 508.993,359.833 509.5,352.5C 510.482,354.911 511.149,357.411 511.5,360C 510.631,365.129 510.298,370.296 510.5,375.5C 512.167,375.5 513.833,375.5 515.5,375.5C 515.37,388.038 515.037,400.205 514.5,412C 514.935,415.063 515.768,415.23 517,412.5C 517.324,425.416 517.49,438.416 517.5,451.5 Z"/></g>
<g><path style="opacity:1" fill="#fae4b1" d="M 517.5,451.5 C 517.232,453.099 517.566,454.432 518.5,455.5C 518.5,483.5 518.5,511.5 518.5,539.5C 517.509,533.021 517.176,526.354 517.5,519.5C 517.666,510.161 517.5,500.827 517,491.5C 516.667,493.833 516.333,496.167 516,498.5C 515.667,493.5 515.333,488.5 515,483.5C 514.667,486.5 514.333,489.5 514,492.5C 513.682,490.939 512.849,489.772 511.5,489C 512.576,487.274 512.743,485.441 512,483.5C 512.164,487.15 510.997,487.983 508.5,486C 509.308,485.692 509.975,485.192 510.5,484.5C 510.894,482.576 510.227,480.743 508.5,479C 509.38,477.644 509.714,476.144 509.5,474.5C 506.5,474.5 503.5,474.5 500.5,474.5C 499.851,476.477 499.851,478.31 500.5,480C 499.237,482.464 497.237,483.63 494.5,483.5C 494.334,475.826 494.5,468.159 495,460.5C 495.619,457.968 496.619,455.635 498,453.5C 496.988,456.341 498.155,457.674 501.5,457.5C 501.5,458.5 501.5,459.5 501.5,460.5C 505.032,461.083 508.698,460.917 512.5,460C 509.833,459.667 507.167,459.333 504.5,459C 507.482,458.502 510.482,458.335 513.5,458.5C 513.336,461.187 513.503,463.854 514,466.5C 514.333,462.833 514.667,459.167 515,455.5C 515.333,459.5 515.667,463.5 516,467.5C 516.173,461.984 516.673,456.651 517.5,451.5 Z"/></g>
<g><path style="opacity:1" fill="#f6dba1" d="M 474.5,466.5 C 474.5,475.167 474.5,483.833 474.5,492.5C 473.675,496.647 473.175,500.981 473,505.5C 472.03,502.256 470.863,499.09 469.5,496C 469.645,495.228 469.978,494.561 470.5,494C 468.926,493.647 467.259,492.98 465.5,492C 464.283,490.352 463.45,488.519 463,486.5C 462.667,487.5 462.333,488.5 462,489.5C 461.439,487.275 460.439,485.275 459,483.5C 458.667,484.833 458.333,486.167 458,487.5C 457.086,486.346 456.253,486.513 455.5,488C 455.833,488.333 456.167,488.667 456.5,489C 455.552,489.483 454.552,489.649 453.5,489.5C 453.116,497.831 452.782,506.164 452.5,514.5C 452.5,519.167 452.5,523.833 452.5,528.5C 452.5,540.5 452.5,552.5 452.5,564.5C 452.167,564.5 451.833,564.5 451.5,564.5C 451.5,533.167 451.5,501.833 451.5,470.5C 452.468,468.393 452.802,466.059 452.5,463.5C 453.491,456.687 453.825,449.687 453.5,442.5C 454.695,442.134 455.361,441.301 455.5,440C 455.421,437.909 455.087,435.742 454.5,433.5C 454.808,432.692 455.308,432.025 456,431.5C 457,431.833 458,432.167 459,432.5C 459.333,430.5 459.667,428.5 460,426.5C 462.602,434.502 464.268,442.169 465,449.5C 465.333,448.5 465.667,447.5 466,446.5C 466.498,449.482 466.665,452.482 466.5,455.5C 467.873,455.343 469.207,455.51 470.5,456C 470.167,456.333 469.833,456.667 469.5,457C 471.995,459.916 473.162,463.416 473,467.5C 473.383,466.944 473.883,466.611 474.5,466.5 Z"/></g>
<g><path style="opacity:1" fill="#f1ead3" d="M 510.5,327.5 C 513.23,326.183 516.063,326.183 519,327.5C 519.833,441.667 519.666,555.667 518.5,669.5C 518.5,669.167 518.5,668.833 518.5,668.5C 518.5,635.833 518.5,603.167 518.5,570.5C 518.5,560.167 518.5,549.833 518.5,539.5C 518.5,511.5 518.5,483.5 518.5,455.5C 518.667,413.165 518.5,370.832 518,328.5C 515.619,327.565 513.119,327.232 510.5,327.5 Z"/></g>
<g><path style="opacity:1" fill="#f5eacd" d="M 475.5,326.5 C 476.222,326.918 476.722,327.584 477,328.5C 477.667,440.167 477.667,551.833 477,663.5C 476.79,665.058 476.29,666.391 475.5,667.5C 475.5,649.167 475.5,630.833 475.5,612.5C 475.5,595.833 475.5,579.167 475.5,562.5C 475.5,559.5 475.5,556.5 475.5,553.5C 475.5,538.167 475.5,522.833 475.5,507.5C 475.5,447.167 475.5,386.833 475.5,326.5 Z"/></g>
<g><path style="opacity:1" fill="#f4eee3" d="M 494.5,327.5 C 494.5,354.833 494.5,382.167 494.5,409.5C 493.533,451.816 493.2,494.15 493.5,536.5C 493.5,575.833 493.5,615.167 493.5,654.5C 492.833,614.168 492.5,573.668 492.5,533C 492.397,464.328 493.064,395.828 494.5,327.5 Z"/></g>
<g><path style="opacity:1" fill="#f0d295" d="M 474.5,492.5 C 474.179,497.695 474.513,502.695 475.5,507.5C 475.5,522.833 475.5,538.167 475.5,553.5C 474.67,543.675 474.17,533.675 474,523.5C 473.667,522.833 473.333,522.167 473,521.5C 472.131,526.508 471.464,526.175 471,520.5C 470.333,517.833 469.667,517.833 469,520.5C 468.517,519.552 468.351,518.552 468.5,517.5C 465.477,517.895 464.477,516.895 465.5,514.5C 463.955,513.548 462.288,513.215 460.5,513.5C 460.649,512.448 460.483,511.448 460,510.5C 457.443,511.646 456.11,510.646 456,507.5C 455.683,509.301 455.016,509.634 454,508.5C 453.809,510.708 453.309,512.708 452.5,514.5C 452.782,506.164 453.116,497.831 453.5,489.5C 454.552,489.649 455.552,489.483 456.5,489C 456.167,488.667 455.833,488.333 455.5,488C 456.253,486.513 457.086,486.346 458,487.5C 458.333,486.167 458.667,484.833 459,483.5C 460.439,485.275 461.439,487.275 462,489.5C 462.333,488.5 462.667,487.5 463,486.5C 463.45,488.519 464.283,490.352 465.5,492C 467.259,492.98 468.926,493.647 470.5,494C 469.978,494.561 469.645,495.228 469.5,496C 470.863,499.09 472.03,502.256 473,505.5C 473.175,500.981 473.675,496.647 474.5,492.5 Z"/></g>
<g><path style="opacity:1" fill="#f9dfa7" d="M 517.5,519.5 C 515.974,517.55 514.974,515.217 514.5,512.5C 511.916,513.393 509.249,513.726 506.5,513.5C 506.5,512.167 506.5,510.833 506.5,509.5C 501.206,509.318 501.206,508.818 506.5,508C 504.866,507.506 503.199,507.34 501.5,507.5C 501.439,509.592 500.439,511.092 498.5,512C 498.833,512.333 499.167,512.667 499.5,513C 498.199,517.056 496.533,520.89 494.5,524.5C 495.148,510.695 495.148,497.028 494.5,483.5C 497.237,483.63 499.237,482.464 500.5,480C 499.851,478.31 499.851,476.477 500.5,474.5C 503.5,474.5 506.5,474.5 509.5,474.5C 509.714,476.144 509.38,477.644 508.5,479C 510.227,480.743 510.894,482.576 510.5,484.5C 509.975,485.192 509.308,485.692 508.5,486C 510.997,487.983 512.164,487.15 512,483.5C 512.743,485.441 512.576,487.274 511.5,489C 512.849,489.772 513.682,490.939 514,492.5C 514.333,489.5 514.667,486.5 515,483.5C 515.333,488.5 515.667,493.5 516,498.5C 516.333,496.167 516.667,493.833 517,491.5C 517.5,500.827 517.666,510.161 517.5,519.5 Z"/></g>
<g><path style="opacity:1" fill="#ebca8b" d="M 475.5,553.5 C 475.5,556.5 475.5,559.5 475.5,562.5C 474.312,556.02 472.478,549.686 470,543.5C 467.05,549.114 466.05,548.781 467,542.5C 467.5,542 468,541.5 468.5,541C 466.996,539.509 466.163,537.676 466,535.5C 465.667,536.833 465.333,538.167 465,539.5C 464.519,536.523 463.352,533.857 461.5,531.5C 459.889,532.32 459.222,533.654 459.5,535.5C 456.791,535.445 454.791,534.778 453.5,533.5C 453.784,531.585 453.451,529.919 452.5,528.5C 452.5,523.833 452.5,519.167 452.5,514.5C 453.309,512.708 453.809,510.708 454,508.5C 455.016,509.634 455.683,509.301 456,507.5C 456.11,510.646 457.443,511.646 460,510.5C 460.483,511.448 460.649,512.448 460.5,513.5C 462.288,513.215 463.955,513.548 465.5,514.5C 464.477,516.895 465.477,517.895 468.5,517.5C 468.351,518.552 468.517,519.552 469,520.5C 469.667,517.833 470.333,517.833 471,520.5C 471.464,526.175 472.131,526.508 473,521.5C 473.333,522.167 473.667,522.833 474,523.5C 474.17,533.675 474.67,543.675 475.5,553.5 Z"/></g>
<g><path style="opacity:1" fill="#f5d99e" d="M 517.5,519.5 C 517.176,526.354 517.509,533.021 518.5,539.5C 518.5,549.833 518.5,560.167 518.5,570.5C 517.67,560.675 517.17,550.675 517,540.5C 515.853,541.458 514.853,541.125 514,539.5C 513.51,538.207 513.343,536.873 513.5,535.5C 510.52,535.38 507.687,534.713 505,533.5C 504.309,535.891 503.309,535.891 502,533.5C 500.667,534.167 499.667,535.167 499,536.5C 496.979,534.349 497.479,532.849 500.5,532C 498.866,531.506 497.199,531.34 495.5,531.5C 495.768,533.099 495.434,534.432 494.5,535.5C 494.5,531.833 494.5,528.167 494.5,524.5C 496.533,520.89 498.199,517.056 499.5,513C 499.167,512.667 498.833,512.333 498.5,512C 500.439,511.092 501.439,509.592 501.5,507.5C 503.199,507.34 504.866,507.506 506.5,508C 501.206,508.818 501.206,509.318 506.5,509.5C 506.5,510.833 506.5,512.167 506.5,513.5C 509.249,513.726 511.916,513.393 514.5,512.5C 514.974,515.217 515.974,517.55 517.5,519.5 Z"/></g>
<g><path style="opacity:1" fill="#e4c080" d="M 452.5,528.5 C 453.451,529.919 453.784,531.585 453.5,533.5C 454.791,534.778 456.791,535.445 459.5,535.5C 459.222,533.654 459.889,532.32 461.5,531.5C 463.352,533.857 464.519,536.523 465,539.5C 465.333,538.167 465.667,536.833 466,535.5C 466.163,537.676 466.996,539.509 468.5,541C 468,541.5 467.5,542 467,542.5C 466.05,548.781 467.05,549.114 470,543.5C 472.478,549.686 474.312,556.02 475.5,562.5C 475.5,579.167 475.5,595.833 475.5,612.5C 474.532,610.393 474.198,608.059 474.5,605.5C 474.465,600.317 474.132,595.15 473.5,590C 471.568,585.099 470.068,579.932 469,574.5C 468.333,573.167 467.667,571.833 467,570.5C 466.667,570.833 466.333,571.167 466,571.5C 464.471,568.264 462.971,564.931 461.5,561.5C 459.47,561.894 457.137,562.227 454.5,562.5C 454.657,561.127 454.49,559.793 454,558.5C 453.809,560.708 453.309,562.708 452.5,564.5C 452.5,552.5 452.5,540.5 452.5,528.5 Z"/></g>
<g><path style="opacity:1" fill="#edcd92" d="M 518.5,570.5 C 518.5,603.167 518.5,635.833 518.5,668.5C 517.167,668.5 515.833,668.5 514.5,668.5C 511.742,667.033 512.075,666.367 515.5,666.5C 517.486,649.532 518.153,632.199 517.5,614.5C 517.667,600.829 517.5,587.163 517,573.5C 516.667,576.167 516.333,578.833 516,581.5C 514.908,576.725 514.408,572.059 514.5,567.5C 511.27,567.439 509.437,565.772 509,562.5C 507.556,564.155 505.722,564.822 503.5,564.5C 503.328,560.029 502.494,559.696 501,563.5C 498.925,562.105 497.092,562.438 495.5,564.5C 494.501,575.48 494.168,586.48 494.5,597.5C 494.5,611.5 494.5,625.5 494.5,639.5C 494.5,648.833 494.5,658.167 494.5,667.5C 493.515,663.366 493.182,659.032 493.5,654.5C 493.5,615.167 493.5,575.833 493.5,536.5C 494.167,536.5 494.5,536.167 494.5,535.5C 495.434,534.432 495.768,533.099 495.5,531.5C 497.199,531.34 498.866,531.506 500.5,532C 497.479,532.849 496.979,534.349 499,536.5C 499.667,535.167 500.667,534.167 502,533.5C 503.309,535.891 504.309,535.891 505,533.5C 507.687,534.713 510.52,535.38 513.5,535.5C 513.343,536.873 513.51,538.207 514,539.5C 514.853,541.125 515.853,541.458 517,540.5C 517.17,550.675 517.67,560.675 518.5,570.5 Z"/></g>
<g><path style="opacity:1" fill="#deb879" d="M 474.5,605.5 C 469.895,602.733 467.062,598.733 466,593.5C 465.692,594.308 465.192,594.975 464.5,595.5C 463.571,594.311 463.238,592.978 463.5,591.5C 460.287,593.331 458.287,592.331 457.5,588.5C 455.704,587.859 454.204,586.859 453,585.5C 452.5,594.494 452.334,603.494 452.5,612.5C 452.5,631.167 452.5,649.833 452.5,668.5C 452.167,668.5 451.833,668.5 451.5,668.5C 451.5,633.833 451.5,599.167 451.5,564.5C 451.833,564.5 452.167,564.5 452.5,564.5C 453.309,562.708 453.809,560.708 454,558.5C 454.49,559.793 454.657,561.127 454.5,562.5C 457.137,562.227 459.47,561.894 461.5,561.5C 462.971,564.931 464.471,568.264 466,571.5C 466.333,571.167 466.667,570.833 467,570.5C 467.667,571.833 468.333,573.167 469,574.5C 470.068,579.932 471.568,585.099 473.5,590C 474.132,595.15 474.465,600.317 474.5,605.5 Z"/></g>
<g><path style="opacity:1" fill="#eac688" d="M 517.5,614.5 C 516.883,614.611 516.383,614.944 516,615.5C 515.123,609.753 514.956,604.086 515.5,598.5C 514.5,598.5 513.5,598.5 512.5,598.5C 512.66,596.801 512.494,595.134 512,593.5C 511.667,595.833 511.333,598.167 511,600.5C 510.308,599.975 509.808,599.308 509.5,598.5C 510.053,596.273 510.053,593.939 509.5,591.5C 507.658,591.723 505.825,592.057 504,592.5C 502.393,592.231 501.226,591.397 500.5,590C 499.5,589.333 498.5,589.333 497.5,590C 495.98,592.334 494.98,594.834 494.5,597.5C 494.168,586.48 494.501,575.48 495.5,564.5C 497.092,562.438 498.925,562.105 501,563.5C 502.494,559.696 503.328,560.029 503.5,564.5C 505.722,564.822 507.556,564.155 509,562.5C 509.437,565.772 511.27,567.439 514.5,567.5C 514.408,572.059 514.908,576.725 516,581.5C 516.333,578.833 516.667,576.167 517,573.5C 517.5,587.163 517.667,600.829 517.5,614.5 Z"/></g>
<g><path style="opacity:1" fill="#dab16e" d="M 474.5,605.5 C 474.198,608.059 474.532,610.393 475.5,612.5C 475.5,630.833 475.5,649.167 475.5,667.5C 475.5,668.167 475.167,668.5 474.5,668.5C 474.167,668.5 473.833,668.5 473.5,668.5C 471.708,667.691 469.708,667.191 467.5,667C 469.81,666.503 472.143,666.337 474.5,666.5C 474.667,654.829 474.5,643.162 474,631.5C 473.667,631.833 473.333,632.167 473,632.5C 470.799,627.184 468.466,621.85 466,616.5C 465.667,616.833 465.333,617.167 465,617.5C 463.907,615.651 462.574,613.984 461,612.5C 458.909,613.5 457.243,612.833 456,610.5C 454.887,611.305 453.721,611.972 452.5,612.5C 452.334,603.494 452.5,594.494 453,585.5C 454.204,586.859 455.704,587.859 457.5,588.5C 458.287,592.331 460.287,593.331 463.5,591.5C 463.238,592.978 463.571,594.311 464.5,595.5C 465.192,594.975 465.692,594.308 466,593.5C 467.062,598.733 469.895,602.733 474.5,605.5 Z"/></g>
<g><path style="opacity:1" fill="#e3be7e" d="M 517.5,614.5 C 518.153,632.199 517.486,649.532 515.5,666.5C 515.245,665.064 514.912,663.564 514.5,662C 515.516,661.481 516.182,660.647 516.5,659.5C 516.117,655.66 515.117,651.993 513.5,648.5C 514.043,647.136 514.21,645.803 514,644.5C 513,643.167 512,643.167 511,644.5C 510.457,642.369 509.624,640.369 508.5,638.5C 505.41,637.647 502.91,635.98 501,633.5C 500.424,636.124 499.09,636.791 497,635.5C 496.066,636.858 495.232,638.192 494.5,639.5C 494.5,625.5 494.5,611.5 494.5,597.5C 494.98,594.834 495.98,592.334 497.5,590C 498.5,589.333 499.5,589.333 500.5,590C 501.226,591.397 502.393,592.231 504,592.5C 505.825,592.057 507.658,591.723 509.5,591.5C 510.053,593.939 510.053,596.273 509.5,598.5C 509.808,599.308 510.308,599.975 511,600.5C 511.333,598.167 511.667,595.833 512,593.5C 512.494,595.134 512.66,596.801 512.5,598.5C 513.5,598.5 514.5,598.5 515.5,598.5C 514.956,604.086 515.123,609.753 516,615.5C 516.383,614.944 516.883,614.611 517.5,614.5 Z"/></g>
<g><path style="opacity:1" fill="#d5a662" d="M 473.5,668.5 C 466.5,668.5 459.5,668.5 452.5,668.5C 452.5,649.833 452.5,631.167 452.5,612.5C 453.721,611.972 454.887,611.305 456,610.5C 457.243,612.833 458.909,613.5 461,612.5C 462.574,613.984 463.907,615.651 465,617.5C 465.333,617.167 465.667,616.833 466,616.5C 468.466,621.85 470.799,627.184 473,632.5C 473.333,632.167 473.667,631.833 474,631.5C 474.5,643.162 474.667,654.829 474.5,666.5C 472.143,666.337 469.81,666.503 467.5,667C 469.708,667.191 471.708,667.691 473.5,668.5 Z"/></g>
<g><path style="opacity:1" fill="#dcb272" d="M 515.5,666.5 C 512.075,666.367 511.742,667.033 514.5,668.5C 508.011,667.383 501.678,667.383 495.5,668.5C 494.833,668.5 494.5,668.167 494.5,667.5C 494.5,658.167 494.5,648.833 494.5,639.5C 495.232,638.192 496.066,636.858 497,635.5C 499.09,636.791 500.424,636.124 501,633.5C 502.91,635.98 505.41,637.647 508.5,638.5C 509.624,640.369 510.457,642.369 511,644.5C 512,643.167 513,643.167 514,644.5C 514.21,645.803 514.043,647.136 513.5,648.5C 515.117,651.993 516.117,655.66 516.5,659.5C 516.182,660.647 515.516,661.481 514.5,662C 514.912,663.564 515.245,665.064 515.5,666.5 Z"/></g>
<g><path style="opacity:1" fill="#7c5c2e" d="M 495.5,668.5 C 501.678,667.383 508.011,667.383 514.5,668.5C 515.833,668.5 517.167,668.5 518.5,668.5C 518.5,668.833 518.5,669.167 518.5,669.5C 518.672,670.492 518.338,671.158 517.5,671.5C 516.486,670.235 514.986,669.569 513,669.5C 507.523,668.752 502.023,668.419 496.5,668.5C 496.167,668.5 495.833,668.5 495.5,668.5 Z"/></g>
<g><path style="opacity:1" fill="#36261a" d="M 451.5,668.5 C 451.833,668.5 452.167,668.5 452.5,668.5C 459.5,668.5 466.5,668.5 473.5,668.5C 473.833,668.5 474.167,668.5 474.5,668.5C 473.27,670.297 472.604,672.297 472.5,674.5C 466.002,674.557 459.669,673.557 453.5,671.5C 452.807,670.482 452.141,669.482 451.5,668.5 Z"/></g>
<g><path style="opacity:1" fill="#271f19" d="M 496.5,668.5 C 502.023,668.419 507.523,668.752 513,669.5C 514.986,669.569 516.486,670.235 517.5,671.5C 511.347,672.653 505.014,672.82 498.5,672C 497.695,670.887 497.028,669.721 496.5,668.5 Z"/></g>
<g><path style="opacity:1" fill="#f2e7d7" d="M 406.5,682.5 C 450.328,682.265 494.328,682.265 538.5,682.5C 525.01,683.496 511.344,683.829 497.5,683.5C 477.833,683.5 458.167,683.5 438.5,683.5C 428.013,682.506 417.346,682.172 406.5,682.5 Z"/></g>
<g><path style="opacity:1" fill="#efce90" d="M 538.5,682.5 C 541.167,682.5 543.833,682.5 546.5,682.5C 552.167,682.5 557.833,682.5 563.5,682.5C 563.5,690.5 563.5,698.5 563.5,706.5C 560.713,707.477 557.713,707.81 554.5,707.5C 547.988,706.833 541.321,706.167 534.5,705.5C 533.679,703.217 533.012,700.884 532.5,698.5C 533.069,693.491 533.069,688.991 532.5,685C 523.32,684.334 514.153,684.501 505,685.5C 502.134,685.7 499.634,685.033 497.5,683.5C 511.344,683.829 525.01,683.496 538.5,682.5 Z"/></g>
<g><path style="opacity:1" fill="#d1a15c" d="M 406.5,682.5 C 417.346,682.172 428.013,682.506 438.5,683.5C 442.634,684.485 446.968,684.818 451.5,684.5C 455.981,685.246 459.981,686.913 463.5,689.5C 463.057,694.545 464.39,699.045 467.5,703C 467.167,703.333 466.833,703.667 466.5,704C 468.927,704.902 471.26,705.736 473.5,706.5C 470.287,706.19 467.287,706.523 464.5,707.5C 445.167,707.5 425.833,707.5 406.5,707.5C 406.5,699.167 406.5,690.833 406.5,682.5 Z"/></g>
<g><path style="opacity:1" fill="#d9ad6c" d="M 451.5,684.5 C 466.182,684.167 480.848,684.501 495.5,685.5C 499.228,689.701 503.895,692.367 509.5,693.5C 510.23,696.109 510.73,698.776 511,701.5C 512.399,701.501 513.899,701.835 515.5,702.5C 516.731,703.651 516.731,704.817 515.5,706C 501.504,706.5 487.504,706.667 473.5,706.5C 471.26,705.736 468.927,704.902 466.5,704C 466.833,703.667 467.167,703.333 467.5,703C 464.39,699.045 463.057,694.545 463.5,689.5C 459.981,686.913 455.981,685.246 451.5,684.5 Z"/></g>
<g><path style="opacity:1" fill="#f3e3be" d="M 546.5,682.5 C 552.31,681.51 558.31,681.177 564.5,681.5C 564.826,690.017 564.493,698.35 563.5,706.5C 563.5,698.5 563.5,690.5 563.5,682.5C 557.833,682.5 552.167,682.5 546.5,682.5 Z"/></g>
<g><path style="opacity:1" fill="#e1bb7c" d="M 438.5,683.5 C 458.167,683.5 477.833,683.5 497.5,683.5C 499.634,685.033 502.134,685.7 505,685.5C 514.153,684.501 523.32,684.334 532.5,685C 533.069,688.991 533.069,693.491 532.5,698.5C 533.012,700.884 533.679,703.217 534.5,705.5C 541.321,706.167 547.988,706.833 554.5,707.5C 524.5,707.5 494.5,707.5 464.5,707.5C 467.287,706.523 470.287,706.19 473.5,706.5C 487.504,706.667 501.504,706.5 515.5,706C 516.731,704.817 516.731,703.651 515.5,702.5C 513.899,701.835 512.399,701.501 511,701.5C 510.73,698.776 510.23,696.109 509.5,693.5C 503.895,692.367 499.228,689.701 495.5,685.5C 480.848,684.501 466.182,684.167 451.5,684.5C 446.968,684.818 442.634,684.485 438.5,683.5 Z"/></g>
</svg>
